<svg width="116" height="38" viewBox="0 0 116 38" fill="none" xmlns="http://www.w3.org/2000/svg">
<path d="M0 30.7119V8.10558L19.8349 0.715088L30.6145 4.19296V34.6243L19.8349 37.9002L0 30.7119L19.8349 33.1183V6.80161L6.89885 9.84469V27.669L0 30.7119ZM51.7396 30.8704C48.6172 30.8704 46.1169 29.8332 44.2384 27.7586C42.36 25.6841 41.4207 22.9852 41.4207 19.6618C41.4207 16.0907 42.3778 13.2422 44.2922 11.1162C46.2065 8.99007 48.8117 7.92709 52.1081 7.92709C55.1484 7.92709 57.5976 8.9592 59.4556 11.0233C61.3135 13.0875 62.2426 15.7864 62.2426 19.1202C62.2426 22.7428 61.2905 25.6069 59.3865 27.7125C57.4824 29.8179 54.9335 30.8704 51.7396 30.8704ZM51.9238 10.2798C49.6103 10.2798 47.7318 11.121 46.2884 12.8033C44.845 14.4856 44.1232 16.6943 44.1232 19.4293C44.1232 22.1644 44.8271 24.3654 46.2346 26.0322C47.6422 27.699 49.4771 28.5325 51.7395 28.5325C54.1554 28.5325 56.0595 27.7377 57.4517 26.1483C58.8439 24.5589 59.54 22.3347 59.54 19.4758C59.54 16.5447 58.8644 14.2791 57.5131 12.6795C56.1618 11.0798 54.2988 10.2799 51.9238 10.2798ZM71.418 6.68675C69.9951 6.68675 68.8127 7.17536 67.8607 8.14038C66.9086 9.1054 66.4323 10.4185 66.4323 12.0802V14.6478H63.7509V16.8215H66.4323V30.5018H68.9387V16.8215H75.0698V30.5018H77.5761V16.8215H81.2547V14.6478H77.5761V12.2024C77.5761 9.96272 78.4563 8.8468 80.2171 8.8468C80.8416 8.8468 81.3967 8.97569 81.888 9.25436V6.97199C81.4376 6.78623 80.8367 6.68675 80.0689 6.68675C78.646 6.68675 77.4501 7.17536 76.4981 8.14032C75.5461 9.1054 75.0698 10.4185 75.0698 12.0801V14.6477H68.9387V12.2024C68.9387 9.96266 69.819 8.84674 71.5797 8.84674C72.2042 8.84674 72.7593 8.97569 73.2507 9.2543V6.97199C72.8002 6.78623 72.1857 6.68681 71.418 6.68675ZM84.917 10.6183C84.4666 10.6183 84.0827 10.4635 83.7654 10.1538C83.4481 9.84422 83.2894 9.45204 83.2894 8.97722C83.2894 8.50245 83.4481 8.10769 83.7654 7.79292C84.0827 7.47815 84.4666 7.32074 84.917 7.32074C85.3777 7.32074 85.7693 7.47815 86.0917 7.79292C86.4142 8.10775 86.5754 8.50251 86.5754 8.97722C86.5754 9.43138 86.4142 9.8184 86.0917 10.1383C85.7692 10.4583 85.3777 10.6183 84.917 10.6183ZM86.1455 30.4963H83.6272V14.6434H86.1455V30.4963ZM100.452 29.7686C99.2443 30.5014 97.8111 30.8678 96.1527 30.8678C93.9108 30.8678 92.1015 30.1324 90.7246 28.6617C89.3477 27.191 88.6592 25.2841 88.6592 22.9413C88.6592 20.3301 89.4015 18.2324 90.8858 16.6481C92.3701 15.0639 94.3509 14.2717 96.8283 14.2717C98.2103 14.2717 99.4285 14.5298 100.483 15.0458V17.6466C99.3158 16.821 98.0669 16.4081 96.7362 16.4081C95.1289 16.4081 93.8109 16.9887 92.7821 18.1498C91.7533 19.311 91.2389 20.8358 91.2389 22.7246C91.2389 24.5824 91.7226 26.0479 92.69 27.1213C93.6574 28.1947 94.9548 28.7314 96.5826 28.7313C97.9544 28.7313 99.2442 28.272 100.452 27.3535L100.452 29.7686ZM115.846 23.2055H104.744C104.785 24.9704 105.256 26.3327 106.157 27.2925C107.058 28.2524 108.296 28.7323 109.873 28.7323C111.644 28.7323 113.272 28.144 114.756 26.9674V29.3515C113.374 30.363 111.547 30.8687 109.274 30.8687C107.053 30.8687 105.307 30.1489 104.038 28.7091C102.768 27.2693 102.134 25.2439 102.134 22.6327C102.134 20.1659 102.827 18.1559 104.214 16.6027C105.602 15.0494 107.324 14.2728 109.381 14.2728C111.439 14.2728 113.031 14.9437 114.157 16.2854C115.283 17.6271 115.846 19.4901 115.846 21.8742L115.846 23.2055ZM113.266 21.0536C113.256 19.5881 112.905 18.4476 112.214 17.6322C111.523 16.8169 110.564 16.4092 109.335 16.4092C108.148 16.4092 107.139 16.8375 106.31 17.6942C105.481 18.5508 104.969 19.6706 104.775 21.0536H113.266Z" fill="#8695AA"/>
</svg>
