<svg width="127" height="39" viewBox="0 0 127 39" fill="none" xmlns="http://www.w3.org/2000/svg">
<path d="M67.1388 9.70216C67.1388 11.0937 65.9986 12.2147 64.5832 12.2147C63.1678 12.2147 62.0276 11.0937 62.0276 9.70216C62.0276 8.31061 63.1284 7.18965 64.5832 7.18965C66.0379 7.2283 67.1388 8.34927 67.1388 9.70216ZM56.6018 14.7658V15.3843C56.6018 15.3843 55.383 13.8381 52.788 13.8381C48.5025 13.8381 45.1605 17.0464 45.1605 21.4916C45.1605 25.8982 48.4632 29.1451 52.788 29.1451C55.4223 29.1451 56.6018 27.5603 56.6018 27.5603V28.2174C56.6018 28.5267 56.8377 28.7586 57.1522 28.7586H60.3369V14.2247H57.1522C56.8377 14.2247 56.6018 14.4953 56.6018 14.7658ZM56.6018 24.0814C56.012 24.9318 54.8325 25.6663 53.4171 25.6663C50.9008 25.6663 48.9743 24.1201 48.9743 21.4916C48.9743 18.8632 50.9008 17.317 53.4171 17.317C54.7932 17.317 56.0514 18.0901 56.6018 18.9018V24.0814ZM62.696 14.2247H66.4704V28.7586H62.696V14.2247ZM119.077 13.8381C116.482 13.8381 115.263 15.3843 115.263 15.3843V7.2283H111.489V28.7586H114.673C114.988 28.7586 115.224 28.488 115.224 28.2174V27.5603C115.224 27.5603 116.443 29.1451 119.037 29.1451C123.323 29.1451 126.665 25.8982 126.665 21.4916C126.665 17.0851 123.323 13.8381 119.077 13.8381ZM118.448 25.6276C116.993 25.6276 115.853 24.8932 115.263 24.0428V18.8632C115.853 18.0901 117.111 17.2783 118.448 17.2783C120.964 17.2783 122.891 18.8245 122.891 21.453C122.891 24.0814 120.964 25.6276 118.448 25.6276ZM109.523 20.1387V28.7972H105.748V20.5639C105.748 18.1674 104.962 17.201 102.839 17.201C101.699 17.201 100.519 17.7808 99.772 18.6312V28.7586H95.9976V14.2247H98.9857C99.3002 14.2247 99.5361 14.4953 99.5361 14.7658V15.3843C100.637 14.2633 102.092 13.8381 103.546 13.8381C105.198 13.8381 106.574 14.302 107.675 15.2297C109.012 16.312 109.523 17.7035 109.523 20.1387ZM86.8367 13.8381C84.2418 13.8381 83.0229 15.3843 83.0229 15.3843V7.2283H79.2485V28.7586H82.4332C82.7477 28.7586 82.9836 28.488 82.9836 28.2174V27.5603C82.9836 27.5603 84.2024 29.1451 86.7974 29.1451C91.0829 29.1451 94.4249 25.8982 94.4249 21.4916C94.4642 17.0851 91.1223 13.8381 86.8367 13.8381ZM86.2076 25.6276C84.7529 25.6276 83.6127 24.8932 83.0229 24.0428V18.8632C83.6127 18.0901 84.8708 17.2783 86.2076 17.2783C88.7239 17.2783 90.6505 18.8245 90.6505 21.453C90.6505 24.0814 88.7239 25.6276 86.2076 25.6276ZM75.9852 13.8381C77.1254 13.8381 77.7151 14.0314 77.7151 14.0314V17.4716C77.7151 17.4716 74.5697 16.428 72.6039 18.6312V28.7972H68.8294V14.2247H72.0141C72.3287 14.2247 72.5646 14.4953 72.5646 14.7658V15.3843C73.2723 14.5726 74.8056 13.8381 75.9852 13.8381ZM36.786 27.4443C36.5894 26.9805 36.3928 26.478 36.1962 26.0528C35.8817 25.357 35.5671 24.6999 35.2919 24.0814L35.2526 24.0428C32.5397 18.2447 29.6302 12.3693 26.5635 6.57118L26.4455 6.33926C26.131 5.75945 25.8165 5.14098 25.5019 4.52252C25.1088 3.82675 24.7156 3.09232 24.0865 2.39655C22.8284 0.850388 21.0198 0 19.0932 0C17.1274 0 15.3581 0.850388 14.0607 2.31924C13.4709 3.01501 13.0384 3.74944 12.6452 4.44521C12.3307 5.06367 12.0162 5.68214 11.7016 6.26195L11.5837 6.49387C8.55625 12.292 5.60746 18.1674 2.89458 23.9655L2.85526 24.0428C2.58004 24.6613 2.26551 25.3184 1.95097 26.0141C1.75438 26.4393 1.5578 26.9032 1.36121 27.4057C0.850089 28.8359 0.69282 30.1888 0.889406 31.5803C1.32189 34.4794 3.28775 36.9146 6.00063 37.9969C7.02288 38.4221 8.08444 38.6154 9.18532 38.6154C9.49986 38.6154 9.89303 38.5767 10.2076 38.538C11.505 38.3834 12.8418 37.9582 14.1393 37.2238C15.7513 36.3348 17.2847 35.0592 19.0146 33.2038C20.7446 35.0592 22.3173 36.3348 23.8899 37.2238C25.1874 37.9582 26.5242 38.3834 27.8216 38.538C28.1362 38.5767 28.5294 38.6154 28.8439 38.6154C29.9448 38.6154 31.0457 38.4221 32.0286 37.9969C34.7808 36.9146 36.7073 34.4407 37.1398 31.5803C37.4543 30.2274 37.2971 28.8745 36.786 27.4443ZM19.0539 29.4544C16.9308 26.8259 15.5547 24.352 15.0829 22.2647C14.8863 21.3757 14.847 20.6026 14.9649 19.9068C15.0436 19.2884 15.2795 18.7472 15.594 18.2833C16.341 17.2397 17.5992 16.5826 19.0539 16.5826C20.5087 16.5826 21.8061 17.201 22.5138 18.2833C22.8284 18.7472 23.0643 19.2884 23.1429 19.9068C23.2609 20.6026 23.2215 21.4143 23.025 22.2647C22.5532 24.3134 21.1771 26.7872 19.0539 29.4544ZM34.7415 31.2711C34.4662 33.2811 33.0901 35.0205 31.1636 35.7936C30.22 36.1802 29.1978 36.2961 28.1755 36.1802C27.1926 36.0642 26.2096 35.755 25.1874 35.1751C23.772 34.4021 22.3566 33.2038 20.7052 31.4257C23.3002 28.2947 24.8729 25.4343 25.4626 22.8832C25.7378 21.6849 25.7772 20.6026 25.6592 19.5976C25.5019 18.6312 25.1481 17.7422 24.5976 16.9691C23.3788 15.2297 21.3343 14.2247 19.0539 14.2247C16.7735 14.2247 14.729 15.2683 13.5102 16.9691C12.9598 17.7422 12.6059 18.6312 12.4486 19.5976C12.2914 20.6026 12.3307 21.7236 12.6452 22.8832C13.235 25.4343 14.847 28.3334 17.4026 31.4644C15.7906 33.2424 14.3359 34.4407 12.9205 35.2138C11.8982 35.7936 10.9153 36.1028 9.93235 36.2188C8.87079 36.3348 7.84854 36.1801 6.94425 35.8323C5.01771 35.0592 3.64161 33.3198 3.36639 31.3097C3.24843 30.3434 3.32707 29.377 3.72024 28.2947C3.83819 27.9082 4.03478 27.5217 4.23136 27.0578C4.50658 26.4393 4.82112 25.7822 5.13566 25.1251L5.17497 25.0478C7.88786 19.2884 10.7973 13.4129 13.8247 7.69215L13.9427 7.46022C14.2572 6.88041 14.5718 6.26195 14.8863 5.68214C15.2008 5.06367 15.5547 4.48387 15.9872 3.98136C16.8129 3.05367 17.9137 2.55116 19.1326 2.55116C20.3514 2.55116 21.4523 3.05367 22.2779 3.98136C22.7104 4.48387 23.0643 5.06367 23.3788 5.68214C23.6933 6.26195 24.0079 6.88041 24.3224 7.46022L24.4404 7.69215C27.4285 13.4516 30.3379 19.327 33.0508 25.0865V25.1251C33.3654 25.7436 33.6406 26.4393 33.9551 27.0578C34.1517 27.5217 34.3483 27.9082 34.4662 28.2947C34.7808 29.2997 34.8987 30.2661 34.7415 31.2711Z" fill="#8695AA"/>
</svg>
