<svg width="228" height="29" viewBox="0 0 228 29" fill="none" xmlns="http://www.w3.org/2000/svg">
<path d="M20.7706 17.4523H5.56144V13.6786H25.1733C24.6587 12.0776 23.0005 10.591 20.0845 10.591H5.84733C2.58822 10.591 0.701364 11.7918 0.701364 14.4219V17.2236C0.701364 19.5107 2.64539 20.8258 5.50426 20.8258H20.885V24.8282H0.186768C0.701364 27.0009 2.35951 28.1445 5.33273 28.1445H20.8278C24.0869 28.1445 25.6879 26.8866 25.6879 24.1992V21.3976C25.6879 18.9389 23.801 17.6239 20.7706 17.4523ZM51.8179 10.6482H33.0637V28.2017H38.3812V21.4547H52.2182C56.049 21.4547 58.1646 20.1397 58.1646 17.0521V15.108C58.1074 12.2492 55.706 10.6482 51.8179 10.6482ZM53.5332 16.2516C53.5332 17.5095 53.3045 18.1956 51.2462 18.1956H38.3812L38.4384 13.6214H51.0174C53.3045 13.6214 53.5904 14.3076 53.5904 15.5083V16.2516H53.5332ZM75.8324 21.3404H64.5113L61.7096 24.3136H78.0623L80.864 28.2017H87.1535L73.6025 9.90491L70.4006 13.8501L75.8324 21.3404ZM97.3311 13.6786H117.229C116.714 11.6202 114.713 10.591 111.854 10.591H96.988C94.4151 10.591 91.9564 11.6202 91.9564 14.4219V24.2564C91.9564 27.0581 94.4151 28.0873 96.988 28.0873H112.026C115.456 28.0873 116.657 27.1153 117.229 24.771H97.3311V13.6786ZM140.557 19.5107V16.5375H124.49V28.2017H148.219V24.8854H129.865V19.5107H140.557ZM125.062 10.6482H149.019V13.7358H125.062V10.6482ZM163.771 10.6482H155.423L165.258 17.8526C166.687 16.8805 168.345 15.8514 169.832 14.9937L163.771 10.6482ZM175.893 19.6251C174.463 20.5971 173.034 21.6834 171.662 22.7126L179.095 28.1445H187.5L175.893 19.6251Z" fill="#8695AA"/>
<path d="M227.467 0.413574C181.725 3.04373 160.569 22.5984 155.824 27.2298L154.852 28.1446H163.314C186.185 5.21647 219.062 1.15688 227.467 0.413574Z" fill="#8695AA"/>
</svg>
