<svg width="139" height="34" viewBox="0 0 139 34" fill="none" xmlns="http://www.w3.org/2000/svg">
<path fill-rule="evenodd" clip-rule="evenodd" d="M8.36213 14.1267C14.642 11.9621 15.7109 6.32365 14.9092 1.13945C14.9092 0.952395 15.0695 0.818782 15.2299 0.872227C21.2425 3.81172 28.0033 10.2252 28.0033 19.8453C28.0033 27.2208 22.2846 33.7411 13.9739 33.7411C11.0084 33.876 8.0824 33.0194 5.65778 31.3066C3.23316 29.5938 1.44798 27.1223 0.584011 24.2822C-0.27996 21.4422 -0.173521 18.3952 0.886529 15.6224C1.94658 12.8495 3.89987 10.5086 6.4381 8.9692C6.59844 8.86231 6.81222 8.9692 6.81222 9.15626C6.89239 10.145 7.15961 12.6302 8.25524 14.1267H8.36213Z" fill="#8695AA"/>
<path fill-rule="evenodd" clip-rule="evenodd" d="M45.6937 27.8889L46.1479 27.3545L47.5642 31.8439L47.3772 32.0309C46.3083 33.0197 44.7049 33.5274 42.6473 33.5274H42.5671C40.6965 33.5274 39.2268 32.993 38.2113 32.0042C37.1958 30.9888 36.6614 29.4656 36.6614 27.5415V15.3025H33.0538V10.3588H36.6614V4.39969H42.2197V10.3588H46.6289V15.3025H42.193V26.339C42.193 26.8467 42.3266 28.4768 43.8765 28.4768C44.6782 28.4768 45.4264 28.1829 45.6937 27.8622V27.8889ZM48.6332 33.0197V10.3856H54.1915V33.0197H48.6332ZM51.3856 1.13953C52.0451 1.13955 52.6898 1.3348 53.2386 1.70067C53.7873 2.06654 54.2154 2.58666 54.469 3.19547C54.7226 3.80429 54.7903 4.47454 54.6636 5.12176C54.5368 5.76898 54.2213 6.3642 53.7568 6.8324C53.2924 7.3006 52.6997 7.62083 52.0535 7.75272C51.4073 7.88461 50.7365 7.82226 50.1257 7.57353C49.5149 7.3248 48.9914 6.90082 48.6211 6.35504C48.2509 5.80925 48.0505 5.16608 48.0453 4.50658C48.0453 2.68944 49.5684 1.13953 51.3856 1.13953ZM69.1294 9.8244C73.9395 9.8244 76.5851 12.4432 76.5851 17.2266V32.993H71.0268V18.5627C70.9199 15.9973 69.6906 14.8215 67.0718 14.8215C64.7202 14.8215 62.8229 16.2646 61.8609 17.4938V32.993H56.3026V10.4123H61.8609V12.8173C63.4642 11.2674 66.0296 9.87784 69.1294 9.87784V9.8244ZM95.0772 12.7372V2.10154H100.635V33.0464H95.0772V30.6948C94.2266 31.5919 93.2034 32.3076 92.0691 32.799C90.9348 33.2904 89.7128 33.5472 88.4767 33.5541C82.4106 33.5541 78.3488 28.7975 78.3488 21.716C78.3488 14.6078 82.4106 9.85112 88.4767 9.85112C89.7155 9.85677 90.9401 10.1157 92.0752 10.612C93.2102 11.1083 94.2318 11.8315 95.0772 12.7372ZM95.0772 17.5205C94.4577 16.7137 93.6661 16.0552 92.7601 15.593C91.854 15.1307 90.8563 14.8763 89.8395 14.8483C86.3923 14.8483 84.0941 17.6007 84.0941 21.716C84.0941 25.8046 86.3923 28.557 89.8395 28.557C91.8437 28.557 94.035 27.4881 95.0772 25.9382V17.5205ZM113.623 9.85112C120.196 9.85112 124.766 14.9284 124.766 22.1435V23.6667H107.957C108.519 26.8467 111.031 28.8777 114.451 28.8777C116.616 28.8777 118.994 27.9424 120.357 26.5795L120.731 26.2588L123.376 30.0535L123.109 30.294C120.605 32.5141 117.341 33.682 113.997 33.5541C107.049 33.5541 102.159 28.6639 102.159 21.6893C102.105 20.1494 102.362 18.6145 102.916 17.1767C103.47 15.7389 104.309 14.4278 105.382 13.3222C106.455 12.2166 107.741 11.3392 109.161 10.7427C110.582 10.1462 112.109 9.84297 113.649 9.85112H113.623ZM107.931 19.4713H119.341C119.021 16.0775 116.215 14.5276 113.623 14.5276C109.721 14.5276 108.251 17.4671 107.931 19.498V19.4713ZM138.208 9.85112H138.608V15.4629L138.127 15.3827C137.727 15.3025 137.219 15.2491 136.711 15.2491C134.921 15.2491 132.435 16.5051 131.5 17.8412V32.993H125.942V10.3856H131.527V12.8975C133.371 10.9735 135.803 9.85112 138.208 9.85112Z" fill="#8695AA"/>
</svg>
