<svg width="168" height="34" viewBox="0 0 168 34" fill="none" xmlns="http://www.w3.org/2000/svg">
<path d="M20.3354 7.04742L10.6423 13.2345L20.3354 19.4215L10.6423 25.6086L0.949219 19.37L10.6423 13.1829L0.949219 7.04742L10.6423 0.860352L20.3354 7.04742ZM10.5907 27.5678L20.2838 21.3808L29.9769 27.5678L20.2838 33.7549L10.5907 27.5678ZM20.3354 19.37L30.0284 13.1829L20.3354 7.04742L29.9769 0.860352L39.6699 7.04742L29.9769 13.2345L39.6699 19.4215L29.9769 25.6086L20.3354 19.37Z" fill="#8695AA"/>
<path d="M47.249 7.04722H55.086C60.0872 7.04722 64.2119 9.93452 64.2119 16.5341V17.9261C64.2119 24.5772 60.345 27.5677 55.2406 27.5677H47.249V7.04722ZM51.6315 10.7595V23.8039H54.9829C57.8186 23.8039 59.7263 21.9477 59.7263 17.823V16.7403C59.7263 12.6156 57.7155 10.7595 54.8282 10.7595H51.6315ZM66.532 10.9657H70.038L70.6052 14.8326C71.2755 12.2031 72.9769 10.811 76.0704 10.811H77.1532V15.2451H75.3486C71.791 15.2451 70.9145 16.4825 70.9145 19.9885V27.6192H66.5836V10.9657H66.532ZM78.0297 19.6276V19.1636C78.0297 13.5952 81.5872 10.5532 86.4338 10.5532C91.3834 10.5532 94.8379 13.5952 94.8379 19.1636V19.6276C94.8379 25.0928 91.4865 28.0317 86.4338 28.0317C81.0716 27.9801 78.0297 25.0928 78.0297 19.6276ZM90.4038 19.576V19.1636C90.4038 16.07 88.857 14.2139 86.3822 14.2139C83.9589 14.2139 82.3606 15.9154 82.3606 19.1636V19.576C82.3606 22.5664 83.9074 24.2679 86.3822 24.2679C88.857 24.2163 90.4038 22.5664 90.4038 19.576ZM97.1065 10.9657H100.716L101.128 14.1108C102.005 11.9969 103.861 10.5532 106.593 10.5532C110.821 10.5532 113.605 13.5952 113.605 19.2151V19.6791C113.605 25.1444 110.512 28.0317 106.593 28.0317C103.964 28.0317 102.159 26.8458 101.283 24.9382V33.3423H97.0549L97.1065 10.9657ZM109.223 19.576V19.2151C109.223 15.9153 107.521 14.2655 105.253 14.2655C102.829 14.2655 101.231 16.1216 101.231 19.2151V19.5245C101.231 22.4633 102.778 24.3194 105.201 24.3194C107.676 24.2679 109.223 22.6696 109.223 19.576ZM119.999 24.5257L119.638 27.5677H115.925V5.39734H120.153V13.9046C121.081 11.7391 122.937 10.5532 125.567 10.5532C129.537 10.6048 132.476 13.3374 132.476 18.8542V19.3698C132.476 24.8866 129.692 28.0317 125.464 28.0317C122.68 27.9801 120.875 26.6912 119.999 24.5257ZM128.042 19.3698V18.9573C128.042 15.9153 126.392 14.2139 124.072 14.2139C121.7 14.2139 120.05 16.1216 120.05 19.0089V19.3698C120.05 22.4633 121.648 24.2679 124.02 24.2679C126.547 24.2679 128.042 22.6696 128.042 19.3698ZM134.332 19.6276V19.1636C134.332 13.5952 137.89 10.5532 142.736 10.5532C147.686 10.5532 151.14 13.5952 151.14 19.1636V19.6276C151.14 25.0928 147.737 28.0317 142.736 28.0317C137.374 27.9801 134.332 25.0928 134.332 19.6276ZM146.758 19.576V19.1636C146.758 16.07 145.211 14.2139 142.736 14.2139C140.313 14.2139 138.714 15.9154 138.714 19.1636V19.576C138.714 22.5664 140.261 24.2679 142.736 24.2679C145.211 24.2163 146.758 22.5664 146.758 19.576ZM156.812 18.9573L150.985 10.9657H155.987L159.338 15.9669L162.741 10.9657H167.691L161.761 18.9058L168 27.5677H163.102L159.286 22.0509L155.574 27.5677H150.47L156.812 18.9573Z" fill="#8695AA"/>
</svg>
