<svg width="60" height="60" viewBox="0 0 60 60" fill="none" xmlns="http://www.w3.org/2000/svg">
<path d="M47.5781 3.63281H40.5469H33.5156C26.7315 3.63281 21.0938 9.1534 21.0938 15.9375C21.0938 22.1259 25.8029 27.262 31.7578 28.1169V33.5156C31.7578 34.2262 32.1852 34.8683 32.8427 35.1395C33.4911 35.4101 34.2517 35.265 34.7585 34.7584L40.5469 28.97L41.2747 28.2422H47.5781C54.3622 28.2422 60 22.7216 60 15.9375C60 9.1534 54.3622 3.63281 47.5781 3.63281Z" fill="#FED843"/>
<path d="M47.5781 28.2422C54.3622 28.2422 60 22.7216 60 15.9375C60 9.1534 54.3622 3.63281 47.5781 3.63281H40.5469V28.97L41.2747 28.2422H47.5781Z" fill="#FABE2C"/>
<path d="M44.7656 44.0625V51.0938C44.7656 54.1523 42.2684 56.3672 39.5168 56.3672C29.3906 56.3672 19.5117 51.5801 12.1641 44.2617C4.81641 36.9434 0 27.0938 0 16.9676C0 14.059 2.36602 11.7188 5.27344 11.7188H12.3047C13.0617 11.7188 13.7332 12.2027 13.9711 12.9199L17.4867 23.4422C17.659 23.9578 17.5828 24.5227 17.2828 24.9738L14.3016 29.4469C15.4313 31.8164 17.4305 34.4062 19.7391 36.6867C22.0488 38.966 24.668 40.9359 27.0375 42.0656L31.5105 39.0844C31.9641 38.7855 32.5266 38.707 33.0422 38.8805L43.5891 42.3961C44.3062 42.634 44.7656 43.3055 44.7656 44.0625Z" fill="#FF641A"/>
<path d="M44.7656 44.0625V51.0937C44.7656 54.1523 42.2684 56.3672 39.5168 56.3672C29.3906 56.3672 19.5117 51.5801 12.1641 44.2617L19.7391 36.6867C22.0488 38.966 24.668 40.9359 27.0375 42.0656L31.5105 39.0844C31.9641 38.7855 32.5266 38.707 33.0422 38.8805L43.5891 42.3961C44.3062 42.634 44.7656 43.3055 44.7656 44.0625Z" fill="#F03800"/>
<path d="M33.5156 17.6952C34.4864 17.6952 35.2734 16.9082 35.2734 15.9374C35.2734 14.9666 34.4864 14.1796 33.5156 14.1796C32.5448 14.1796 31.7578 14.9666 31.7578 15.9374C31.7578 16.9082 32.5448 17.6952 33.5156 17.6952Z" fill="#613D5C"/>
<path d="M40.5469 17.6951C41.5177 17.6951 42.3047 16.9081 42.3047 15.9373C42.3047 14.9664 41.5177 14.1794 40.5469 14.1794C39.5761 14.1794 38.7891 14.9664 38.7891 15.9373C38.7891 16.9081 39.5761 17.6951 40.5469 17.6951Z" fill="#613D5C"/>
<path d="M42.3047 15.9373C42.3047 14.9665 41.5177 14.1794 40.5469 14.1794V17.6951C41.5177 17.6951 42.3047 16.908 42.3047 15.9373Z" fill="#4B2746"/>
<path d="M47.5781 17.6952C48.5489 17.6952 49.3359 16.9082 49.3359 15.9374C49.3359 14.9666 48.5489 14.1796 47.5781 14.1796C46.6073 14.1796 45.8203 14.9666 45.8203 15.9374C45.8203 16.9082 46.6073 17.6952 47.5781 17.6952Z" fill="#4B2746"/>
</svg>
