<svg width="32" height="32" viewBox="0 0 32 32" fill="none" xmlns="http://www.w3.org/2000/svg">
<path d="M3.55555 30.2131H5.77777C6.75781 30.2131 7.55555 29.4154 7.55555 28.4353V25.3598C7.55555 24.3798 6.75781 23.582 5.77777 23.582H3.55555C2.57551 23.582 1.77777 24.3798 1.77777 25.3598V28.4353C1.77777 29.4154 2.57551 30.2131 3.55555 30.2131ZM3.55555 25.3598H5.77777L5.77951 28.4353H3.55555V25.3598Z" fill="#9135E8"/>
<path d="M11.1111 30.213H13.3333C14.3133 30.213 15.1111 29.4153 15.1111 28.4352V17.4135C15.1111 16.4335 14.3133 15.6357 13.3333 15.6357H11.1111C10.1311 15.6357 9.33331 16.4335 9.33331 17.4135V28.4352C9.33331 29.4153 10.1311 30.213 11.1111 30.213ZM11.1111 17.4135H13.3333L13.335 28.4352H11.1111V17.4135Z" fill="#9135E8"/>
<path d="M18.6667 18.7288C17.6866 18.7288 16.8889 19.5265 16.8889 20.5065V28.4354C16.8889 29.4154 17.6866 30.2131 18.6667 30.2131H20.8889C21.8689 30.2131 22.6667 29.4154 22.6667 28.4354V20.5065C22.6667 19.5265 21.8689 18.7288 20.8889 18.7288H18.6667ZM18.6667 28.4354V20.5065H20.8889L20.8906 28.4354H18.6667Z" fill="#9135E8"/>
<path d="M30.2222 28.4352V11.173C30.2222 10.193 29.4245 9.39526 28.4444 9.39526H26.2222C25.2422 9.39526 24.4444 10.193 24.4444 11.173V28.4352C24.4444 29.4152 25.2422 30.213 26.2222 30.213H28.4444C29.4245 30.213 30.2222 29.4152 30.2222 28.4352ZM26.2222 11.173H28.4444L28.4462 28.4352H26.2222V11.173Z" fill="#9135E8"/>
<path d="M5.28647 14.8771L11.9939 8.16968C12.2578 7.90666 12.6623 7.83374 13.0017 7.99433L18.296 10.4848C19.3082 10.9648 20.5234 10.7521 21.3168 9.95787L27.9714 3.30423C28.3186 2.957 28.3186 2.3945 27.9714 2.04728C27.6241 1.70006 27.0616 1.70006 26.7144 2.04728L20.0599 8.70093C19.7951 8.96568 19.3898 9.03686 19.053 8.87627L13.7587 6.38495C12.7474 5.90926 11.5304 6.11933 10.737 6.91273L4.02952 13.6202C3.6823 13.9674 3.6823 14.5299 4.02952 14.8771C4.37673 15.2244 4.93923 15.2244 5.28647 14.8771Z" fill="#9135E8"/>
</svg>
