<svg width="51" height="45" viewBox="0 0 51 45" fill="none" xmlns="http://www.w3.org/2000/svg">
<path d="M3.80769 38.5675L6.02885 42.4041C6.49039 43.2118 7.15385 43.8464 7.93269 44.3079L15.8654 30.5771H0C0 31.4714 0.230769 32.3656 0.692308 33.1733L3.80769 38.5675Z" fill="#0066DA"/>
<path d="M25.1827 14.4232L17.25 0.692383C16.4712 1.15392 15.8077 1.78854 15.3462 2.59623L0.692308 27.9808C0.239258 28.7711 0.000603209 29.6661 0 30.577H15.8654L25.1827 14.4232Z" fill="#00AC47"/>
<path d="M42.4328 44.3079C43.2116 43.8464 43.8751 43.2118 44.3366 42.4041L45.2597 40.8175L49.6731 33.1733C50.1347 32.3656 50.3654 31.4714 50.3654 30.5771H34.4989L37.8751 37.2118L42.4328 44.3079Z" fill="#EA4335"/>
<path d="M25.1827 14.4231L33.1154 0.692308C32.3365 0.230769 31.4423 0 30.5192 0H19.8462C18.9231 0 18.0288 0.259615 17.25 0.692308L25.1827 14.4231Z" fill="#00832D"/>
<path d="M34.5001 30.5771H15.8654L7.93274 44.3079C8.71159 44.7695 9.60582 45.0002 10.5289 45.0002H39.8366C40.7597 45.0002 41.6539 44.7406 42.4327 44.3079L34.5001 30.5771Z" fill="#2684FC"/>
<path d="M42.3462 15.2885L35.0193 2.59623C34.5577 1.78854 33.8943 1.15392 33.1154 0.692383L25.1827 14.4232L34.5 30.577H50.3366C50.3366 29.6828 50.1058 28.7885 49.6443 27.9808L42.3462 15.2885Z" fill="#FFBA00"/>
</svg>
