<svg width="45" height="45" viewBox="0 0 45 45" fill="none" xmlns="http://www.w3.org/2000/svg">
<path d="M37.1953 6.89062H7.80469C4.64063 6.89062 2.03906 9.49219 2.03906 12.6562V32.3438C2.03906 35.5078 4.64063 38.1094 7.80469 38.1094H37.2656C40.4297 38.1094 43.0312 35.5078 43.0312 32.3438V12.6562C42.9609 9.49219 40.4297 6.89062 37.1953 6.89062ZM40.1484 32.3438C40.1484 33.9609 38.8125 35.2969 37.1953 35.2969H7.80469C6.1875 35.2969 4.85156 33.9609 4.85156 32.3438V12.6562C4.85156 11.0391 6.1875 9.70312 7.80469 9.70312H37.2656C38.8828 9.70312 40.2188 11.0391 40.2188 12.6562V32.3438H40.1484Z" fill="#9135E8"/>
<path d="M35.4375 13.922C31.1484 17.086 26.8594 20.2501 22.5 23.4845C18.2109 20.3204 13.9219 17.1564 9.56248 13.922C8.92966 13.5001 8.0156 13.8517 7.66404 14.4142C7.24216 15.1173 7.52341 15.8907 8.15623 16.3126C12.7265 19.6876 17.2265 23.0626 21.7969 26.4376C22.1484 26.7189 22.8515 26.7189 23.2031 26.4376C27.7734 23.0626 32.2734 19.7579 36.8437 16.3829C37.4765 15.961 37.7578 15.1876 37.3359 14.4845C36.9844 13.8517 36 13.5001 35.4375 13.922Z" fill="#9135E8"/>
</svg>
