<svg width="43" height="45" viewBox="0 0 43 45" fill="none" xmlns="http://www.w3.org/2000/svg">
<path d="M33.0165 14.8167V9.45793C33.7249 9.12697 34.3247 8.60169 34.7461 7.94323C35.1675 7.28477 35.3931 6.52022 35.3967 5.73857V5.6155C35.3967 3.33648 33.5485 1.48896 31.2685 1.48896H31.1454C30.0505 1.48896 29.0005 1.92372 28.2263 2.69759C27.4521 3.47147 27.0172 4.52108 27.0172 5.6155V5.73857C27.0208 6.52022 27.2465 7.28477 27.6678 7.94323C28.0892 8.60169 28.689 9.12697 29.3975 9.45793V14.8167C27.3614 15.1283 25.4439 15.9722 23.839 17.2628L9.13645 5.81606C9.24133 5.43774 9.29605 5.04879 9.30213 4.65831C9.30393 3.73866 9.03283 2.83913 8.52313 2.07351C8.01344 1.30789 7.28804 0.710569 6.43868 0.357106C5.58932 0.00364323 4.65417 -0.090082 3.75152 0.0877856C2.84887 0.265653 2.01926 0.707123 1.36765 1.35635C0.716029 2.00558 0.271672 2.8334 0.0907836 3.73511C-0.0901053 4.63681 0.000608514 5.57188 0.351435 6.42205C0.702261 7.27222 1.29744 7.99928 2.0617 8.51128C2.82596 9.02327 3.72496 9.29719 4.64498 9.2984C5.44987 9.29461 6.23969 9.07982 6.93556 8.67547L21.4131 19.9369C20.1126 21.9009 19.434 24.211 19.466 26.5661C19.498 28.9212 20.239 31.212 21.5925 33.14L17.1892 37.543C16.8332 37.4293 16.4624 37.3688 16.0887 37.3638C15.3335 37.3644 14.5955 37.5887 13.9678 38.0085C13.3401 38.4283 12.851 39.0246 12.5623 39.7222C12.2736 40.4197 12.1982 41.1871 12.3457 41.9275C12.4931 42.6679 12.8569 43.3479 13.3909 43.8817C13.9249 44.4155 14.6052 44.7791 15.3458 44.9265C16.0865 45.0739 16.8543 44.9986 17.5521 44.7099C18.2499 44.4213 18.8465 43.9324 19.2664 43.305C19.6864 42.6776 19.9108 41.9398 19.9114 41.1849C19.9065 40.8114 19.8461 40.4407 19.7321 40.0849L24.0883 35.729C25.5088 36.8221 27.1608 37.5758 28.9177 37.9322C30.6746 38.2886 32.4898 38.2382 34.2243 37.7851C35.9588 37.3319 37.5664 36.4879 38.9242 35.3177C40.2819 34.1475 41.3536 32.6821 42.0573 31.0339C42.761 29.3857 43.0779 27.5984 42.9838 25.8089C42.8897 24.0193 42.3871 22.2751 41.5144 20.7097C40.6417 19.1443 39.4222 17.7994 37.9492 16.7779C36.4763 15.7565 34.7889 15.0856 33.0165 14.8167ZM31.2108 32.4411C30.4057 32.4632 29.6044 32.3238 28.8541 32.0312C28.1038 31.7385 27.4198 31.2985 26.8426 30.7371C26.2653 30.1757 25.8064 29.5044 25.4931 28.7627C25.1798 28.0211 25.0184 27.2242 25.0184 26.4192C25.0184 25.6141 25.1798 24.8172 25.4931 24.0756C25.8064 23.3339 26.2653 22.6626 26.8426 22.1012C27.4198 21.5398 28.1038 21.0998 28.8541 20.8071C29.6044 20.5145 30.4057 20.3751 31.2108 20.3972C32.7711 20.4518 34.2494 21.1096 35.3342 22.2321C36.419 23.3545 37.0257 24.854 37.0265 26.4147C37.0273 27.9754 36.4221 29.4755 35.3384 30.599C34.2547 31.7226 32.7772 32.3819 31.2169 32.438" fill="#FF7A59"/>
</svg>
