<svg width="40" height="40" viewBox="0 0 40 40" fill="none" xmlns="http://www.w3.org/2000/svg">
<path d="M19.36 9.68C19.36 15.0261 15.0261 19.36 9.68 19.36C4.33388 19.36 0 15.0261 0 9.68C0 4.33388 4.33388 0 9.68 0C15.0261 0 19.36 4.33388 19.36 9.68Z" fill="#9135E8"/>
<path d="M20.64 9.68C20.64 4.33389 24.9739 0 30.32 0C35.6661 0 40 4.33389 40 9.68C40 15.0261 35.6661 19.36 30.32 19.36H20.64V9.68Z" fill="#9135E8"/>
<path d="M0 30.32C0 24.9739 4.33388 20.64 9.67999 20.64H19.36V30.32C19.36 35.6661 15.0261 40 9.68 40C4.33389 40 0 35.6661 0 30.32Z" fill="#9135E8"/>
<path d="M40 30.32C40 35.6661 35.6661 40 30.32 40C24.9739 40 20.64 35.6661 20.64 30.32C20.64 24.9739 24.9739 20.64 30.32 20.64C35.6661 20.64 40 24.9739 40 30.32Z" fill="#9135E8"/>
</svg>
