<svg width="32" height="32" viewBox="0 0 32 32" fill="none" xmlns="http://www.w3.org/2000/svg">
<g clip-path="url(#clip0_3028_2905)">
<path d="M31.8884 17.8978L27.6837 8.89313C27.5604 8.64101 27.2931 8.49251 27.014 8.52107H23.4419C23.0309 8.52107 22.6977 8.85424 22.6977 9.26526C22.6977 9.67628 23.0309 10.0094 23.4419 10.0094H26.5302L29.9907 17.4513H25.7489C23.8256 17.4419 22.0765 18.5642 21.2837 20.3165C20.7096 21.5217 19.4932 22.2892 18.1581 22.2886H13.8419C12.5068 22.2892 11.2905 21.5217 10.7163 20.3165C9.9235 18.5642 8.17439 17.4419 6.25113 17.4513H2.08371L6.17671 10.0094H8.55812C8.96914 10.0094 9.30231 9.67628 9.30231 9.26526C9.30231 8.85424 8.96914 8.52107 8.55812 8.52107H5.73022C5.46129 8.49558 5.20141 8.62555 5.06046 8.85595L0.148852 17.8606C0.0627457 17.937 0.00940116 18.0436 0 18.1583V27.4235C0.0592558 29.509 1.74662 31.1799 3.83254 31.2188H28.1675C30.2534 31.1799 31.9407 29.509 32 27.4235V18.1583C31.9858 18.0633 31.9474 17.9736 31.8884 17.8978ZM30.5116 27.4234C30.4538 28.6871 29.4319 29.6928 28.1675 29.7304H3.83254C2.56808 29.6928 1.54621 28.6871 1.48838 27.4234V18.9397H6.25113C7.58617 18.9391 8.80248 19.7065 9.37674 20.9118C10.1695 22.6641 11.9186 23.7864 13.8419 23.777H18.1581C20.0814 23.7864 21.8305 22.6641 22.6233 20.9118C23.1974 19.7065 24.4138 18.9391 25.7489 18.9397H30.5116V27.4234Z" fill="#9135E8"/>
<path d="M15.4791 18.0094C15.743 18.2971 16.1903 18.3164 16.4779 18.0524C16.4929 18.0387 16.5072 18.0243 16.5209 18.0094L21.5814 12.9117C21.8279 12.5829 21.7613 12.1165 21.4325 11.8698C21.1679 11.6714 20.804 11.6714 20.5395 11.8698L16.7441 15.6652V1.52568C16.7441 1.11467 16.4109 0.781494 15.9999 0.781494C15.5889 0.781494 15.2557 1.11467 15.2557 1.52568V15.6652L11.4604 11.8699C11.1315 11.6233 10.6651 11.6899 10.4185 12.0187C10.22 12.2833 10.22 12.6472 10.4185 12.9118L15.4791 18.0094Z" fill="#9135E8"/>
</g>
<defs>
<clipPath id="clip0_3028_2905">
<rect width="32" height="32" fill="white"/>
</clipPath>
</defs>
</svg>
