<svg width="45" height="45" viewBox="0 0 45 45" fill="none" xmlns="http://www.w3.org/2000/svg">
<g clip-path="url(#clip0_3031_3202)">
<path d="M9.20449 20.2093C9.13931 23.735 10.4914 27.1392 12.9578 29.6593C15.2207 32.0692 16.4441 35.2727 16.3635 38.5776V39.8868C16.3635 42.711 18.653 45.0006 21.4772 45.0006H23.5227C26.3469 45.0006 28.6365 42.711 28.6365 39.8868V38.2096C28.6083 35.0656 29.8082 32.0346 31.9809 29.7617C37.1272 24.524 37.053 16.106 31.8152 10.96C29.193 8.38348 25.6209 7.00765 21.9479 7.15956C14.9507 7.52882 9.40787 13.2052 9.20449 20.2093ZM22.3569 34.7728L20.6285 23.5228H24.3718L22.6433 34.7728H22.3569ZM26.6522 36.8183C26.6522 37.2785 26.591 37.7389 26.591 38.2094V38.8638H18.409V38.5774C18.4058 37.9896 18.3717 37.4025 18.3068 36.8183H26.6522ZM23.5227 42.9546H21.4772C20.1801 42.9509 19.0255 42.132 18.5933 40.9091H26.407C25.9745 42.132 24.8199 42.9509 23.5227 42.9546ZM22.0295 9.20457H22.5C28.7132 9.20776 33.7475 14.247 33.7444 20.4602C33.7429 23.403 32.5883 26.2279 30.5284 28.3295C28.783 30.1112 27.5652 32.3412 27.0102 34.7728H24.7192L26.4476 23.5228H27.6135C28.1783 23.5228 28.6362 23.0649 28.6362 22.5001C28.6362 21.9353 28.1783 21.4773 27.6135 21.4773H17.3865C16.8217 21.4773 16.3637 21.9353 16.3637 22.5001C16.3637 23.0649 16.8217 23.5228 17.3865 23.5228H18.5523L20.2808 34.7728H17.9488C17.3782 32.3323 16.1631 30.0896 14.4307 28.2786C12.334 26.139 11.1875 23.2452 11.25 20.2502C11.4176 14.3225 16.1079 9.51649 22.0295 9.20457Z" fill="#9135E8"/>
<path d="M23.5228 5.11375V1.02275C23.5228 0.457958 23.0648 0 22.5 0C21.9352 0 21.4773 0.457958 21.4773 1.02275V5.11375C21.4773 5.67854 21.9352 6.1365 22.5 6.1365C23.0648 6.13625 23.5228 5.67854 23.5228 5.11375Z" fill="#9135E8"/>
<path d="M38.1375 5.41021L34.0467 9.50121C33.6456 9.89889 33.6429 10.5465 34.0408 10.9476C34.0428 10.9496 34.0448 10.9515 34.0467 10.9535C34.4444 11.3546 35.092 11.3573 35.4931 10.9594C35.4951 10.9574 35.4971 10.9555 35.499 10.9535L39.59 6.86249C39.9911 6.46138 39.9911 5.81132 39.59 5.41021C39.1889 5.0091 38.5386 5.0091 38.1375 5.41021Z" fill="#9135E8"/>
<path d="M6.86252 5.41021C6.46141 5.0091 5.81135 5.0091 5.41024 5.41021C5.00913 5.81132 5.00913 6.46138 5.41024 6.86249L9.50124 10.9535C9.89892 11.3546 10.5465 11.3573 10.9476 10.9594L10.9535 10.9535C11.3546 10.5558 11.3573 9.9082 10.9594 9.50709C10.9574 9.50513 10.9555 9.50317 10.9535 9.50121L6.86252 5.41021Z" fill="#9135E8"/>
<path d="M36.8182 22.5C36.8182 23.0648 37.2762 23.5228 37.841 23.5228H41.932C42.4968 23.5228 42.9547 23.0648 42.9547 22.5C42.9547 21.9353 42.4968 21.4773 41.932 21.4773H37.841C37.2762 21.4773 36.8182 21.9353 36.8182 22.5Z" fill="#9135E8"/>
<path d="M2.0455 22.5C2.0455 23.0648 2.50346 23.5228 3.06825 23.5228H7.15925C7.72404 23.5228 8.182 23.0648 8.182 22.5C8.182 21.9353 7.72404 21.4773 7.15925 21.4773H3.06825C2.50346 21.4773 2.0455 21.9353 2.0455 22.5Z" fill="#9135E8"/>
</g>
<defs>
<clipPath id="clip0_3031_3202">
<rect width="45" height="45" fill="white"/>
</clipPath>
</defs>
</svg>
