<svg width="60" height="60" viewBox="0 0 60 60" fill="none" xmlns="http://www.w3.org/2000/svg">
<path d="M30 1.875C24.0347 1.88182 18.3157 4.25454 14.0976 8.47263C9.87954 12.6907 7.50682 18.4097 7.5 24.375C7.5 41.5256 28.5466 57.2791 29.4429 57.9414C29.6042 58.0607 29.7994 58.125 30 58.125C30.2006 58.125 30.3958 58.0607 30.5571 57.9414C31.4534 57.2791 52.5 41.5256 52.5 24.375C52.4932 18.4097 50.1205 12.6907 45.9024 8.47263C41.6843 4.25454 35.9653 1.88182 30 1.875Z" fill="#FC6067"/>
<path d="M30 41.25C39.3198 41.25 46.875 33.6948 46.875 24.375C46.875 15.0552 39.3198 7.5 30 7.5C20.6802 7.5 13.125 15.0552 13.125 24.375C13.125 33.6948 20.6802 41.25 30 41.25Z" fill="#E7EAEF"/>
<path d="M28.125 18.75H20.625C20.1072 18.75 19.6875 19.1697 19.6875 19.6875V33.75C19.6875 34.2678 20.1072 34.6875 20.625 34.6875H28.125C28.6428 34.6875 29.0625 34.2678 29.0625 33.75V19.6875C29.0625 19.1697 28.6428 18.75 28.125 18.75Z" fill="#4E5460"/>
<path d="M39.375 14.0625H28.125C27.8764 14.0625 27.6379 14.1613 27.4621 14.3371C27.2863 14.5129 27.1875 14.7514 27.1875 15V34.6875H39.375C39.6236 34.6875 39.8621 34.5887 40.0379 34.4129C40.2137 34.2371 40.3125 33.9986 40.3125 33.75V15C40.3125 14.7514 40.2137 14.5129 40.0379 14.3371C39.8621 14.1613 39.6236 14.0625 39.375 14.0625Z" fill="#565D69"/>
<path d="M35.625 28.125H31.875C31.6264 28.125 31.3879 28.2238 31.2121 28.3996C31.0363 28.5754 30.9375 28.8139 30.9375 29.0625V34.6875H36.5625V29.0625C36.5625 28.8139 36.4637 28.5754 36.2879 28.3996C36.1121 28.2238 35.8736 28.125 35.625 28.125Z" fill="#68B1FC"/>
<path d="M35.625 20.625C35.3764 20.625 35.1379 20.5262 34.9621 20.3504C34.7863 20.1746 34.6875 19.9361 34.6875 19.6875V18.75C34.6875 18.5014 34.7863 18.2629 34.9621 18.0871C35.1379 17.9113 35.3764 17.8125 35.625 17.8125C35.8736 17.8125 36.1121 17.9113 36.2879 18.0871C36.4637 18.2629 36.5625 18.5014 36.5625 18.75V19.6875C36.5625 19.9361 36.4637 20.1746 36.2879 20.3504C36.1121 20.5262 35.8736 20.625 35.625 20.625Z" fill="#E7EAEF"/>
<path d="M31.875 20.625C31.6264 20.625 31.3879 20.5262 31.2121 20.3504C31.0363 20.1746 30.9375 19.9361 30.9375 19.6875V18.75C30.9375 18.5014 31.0363 18.2629 31.2121 18.0871C31.3879 17.9113 31.6264 17.8125 31.875 17.8125C32.1236 17.8125 32.3621 17.9113 32.5379 18.0871C32.7137 18.2629 32.8125 18.5014 32.8125 18.75V19.6875C32.8125 19.9361 32.7137 20.1746 32.5379 20.3504C32.3621 20.5262 32.1236 20.625 31.875 20.625Z" fill="#E7EAEF"/>
<path d="M35.625 25.3125C35.3764 25.3125 35.1379 25.2137 34.9621 25.0379C34.7863 24.8621 34.6875 24.6236 34.6875 24.375V23.4375C34.6875 23.1889 34.7863 22.9504 34.9621 22.7746C35.1379 22.5988 35.3764 22.5 35.625 22.5C35.8736 22.5 36.1121 22.5988 36.2879 22.7746C36.4637 22.9504 36.5625 23.1889 36.5625 23.4375V24.375C36.5625 24.6236 36.4637 24.8621 36.2879 25.0379C36.1121 25.2137 35.8736 25.3125 35.625 25.3125Z" fill="#E7EAEF"/>
<path d="M31.875 25.3125C31.6264 25.3125 31.3879 25.2137 31.2121 25.0379C31.0363 24.8621 30.9375 24.6236 30.9375 24.375V23.4375C30.9375 23.1889 31.0363 22.9504 31.2121 22.7746C31.3879 22.5988 31.6264 22.5 31.875 22.5C32.1236 22.5 32.3621 22.5988 32.5379 22.7746C32.7137 22.9504 32.8125 23.1889 32.8125 23.4375V24.375C32.8125 24.6236 32.7137 24.8621 32.5379 25.0379C32.3621 25.2137 32.1236 25.3125 31.875 25.3125Z" fill="#E7EAEF"/>
<path d="M24.375 25.3125C24.1264 25.3125 23.8879 25.2137 23.7121 25.0379C23.5363 24.8621 23.4375 24.6236 23.4375 24.375V23.4375C23.4375 23.1889 23.5363 22.9504 23.7121 22.7746C23.8879 22.5988 24.1264 22.5 24.375 22.5C24.6236 22.5 24.8621 22.5988 25.0379 22.7746C25.2137 22.9504 25.3125 23.1889 25.3125 23.4375V24.375C25.3125 24.6236 25.2137 24.8621 25.0379 25.0379C24.8621 25.2137 24.6236 25.3125 24.375 25.3125Z" fill="#E7EAEF"/>
<path d="M24.375 30C24.1264 30 23.8879 29.9012 23.7121 29.7254C23.5363 29.5496 23.4375 29.3111 23.4375 29.0625V28.125C23.4375 27.8764 23.5363 27.6379 23.7121 27.4621C23.8879 27.2863 24.1264 27.1875 24.375 27.1875C24.6236 27.1875 24.8621 27.2863 25.0379 27.4621C25.2137 27.6379 25.3125 27.8764 25.3125 28.125V29.0625C25.3125 29.3111 25.2137 29.5496 25.0379 29.7254C24.8621 29.9012 24.6236 30 24.375 30Z" fill="#E7EAEF"/>
</svg>
