<svg width="45" height="45" viewBox="0 0 45 45" fill="none" xmlns="http://www.w3.org/2000/svg">
<g clip-path="url(#clip0_3086_4808)">
<path d="M11.7773 23.3606C11.7773 22.3897 12.5642 21.6028 13.5352 21.6028H21.6211V9.29815C21.6211 8.32724 22.408 7.54034 23.3789 7.54034C24.3495 7.54034 25.1367 8.32724 25.1367 9.29815V23.3606C25.1367 24.3316 24.3495 25.1185 23.3789 25.1185H13.5352C12.5642 25.1185 11.7773 24.3316 11.7773 23.3606ZM44.2653 28.6063C43.4756 28.0408 42.3777 28.2228 41.8129 29.0121L33.1485 41.1145C32.9119 41.3892 32.6153 41.4483 32.4564 41.4589C32.2936 41.4699 31.9798 41.4489 31.7034 41.1897L26.1042 35.7254C25.4093 35.0474 24.2966 35.0611 23.6185 35.756C22.9405 36.4505 22.9539 37.5636 23.6488 38.2416L29.258 43.7156C29.2631 43.7207 29.2683 43.7259 29.2738 43.7307C30.1145 44.5313 31.2372 44.9766 32.3922 44.9766C32.4914 44.9766 32.5909 44.9732 32.6902 44.9666C33.9484 44.8829 35.1229 44.2711 35.9129 43.2881C35.9332 43.2627 35.9528 43.2366 35.972 43.2102L44.6714 31.0586C45.2365 30.2693 45.0546 29.171 44.2653 28.6063ZM22.098 41.462C11.8515 41.2495 3.51562 32.7351 3.51562 22.4817C3.51562 17.747 5.28854 13.2055 8.4375 9.7304V13.3411C8.4375 14.312 9.22439 15.0989 10.1953 15.0989C11.1662 15.0989 11.9531 14.312 11.9531 13.3411V9.29815C11.9531 6.39055 9.58729 4.02472 6.67969 4.02472H2.63672C1.6658 4.02472 0.878906 4.81161 0.878906 5.78253C0.878906 6.75344 1.6658 7.54034 2.63672 7.54034H5.68062C2.04449 11.6358 0 16.947 0 22.4817C0 28.4089 2.28516 34.0033 6.43455 38.2348C10.5781 42.4597 16.1149 44.854 22.0252 44.9766C22.0375 44.9769 22.0499 44.9769 22.0623 44.9769C23.016 44.9769 23.7991 44.2137 23.819 43.2555C23.839 42.2849 23.0685 41.4819 22.098 41.462ZM23.3054 3.5142C33.4994 3.93923 41.4844 12.2706 41.4844 22.4817C41.4844 22.7495 41.4785 23.0208 41.4675 23.2886C41.427 24.2584 42.1803 25.0776 43.1502 25.1181C43.1752 25.1191 43.1999 25.1195 43.225 25.1195C44.1619 25.1195 44.9406 24.38 44.9801 23.4352C44.9931 23.1189 45 22.7983 45 22.4817C45 16.6377 42.7698 11.0999 38.7206 6.88871C34.6828 2.68953 29.2604 0.243704 23.452 0.00166195C22.4825 -0.0402234 21.663 0.714743 21.6225 1.68463C21.5823 2.65452 22.3355 3.47368 23.3054 3.5142Z" fill="#9135E8"/>
</g>
<defs>
<clipPath id="clip0_3086_4808">
<rect width="45" height="45" fill="white"/>
</clipPath>
</defs>
</svg>
