<svg width="32" height="32" viewBox="0 0 32 32" fill="none" xmlns="http://www.w3.org/2000/svg">
<path d="M14.655 14.6129C14.655 13.8979 14.075 13.3179 13.36 13.3179C12.645 13.3179 12.065 13.8979 12.065 14.6129C12.065 15.3279 12.645 15.9079 13.36 15.9079C14.076 15.9079 14.655 15.3279 14.655 14.6129Z" fill="#9135E8"/>
<path d="M19.359 14.6129C19.359 13.8979 18.779 13.3179 18.064 13.3179C17.349 13.3179 16.769 13.8979 16.769 14.6129C16.769 15.3279 17.349 15.9079 18.064 15.9079C18.779 15.9079 19.359 15.3279 19.359 14.6129Z" fill="#9135E8"/>
<path d="M22.768 15.9079C23.4832 15.9079 24.063 15.3281 24.063 14.6129C24.063 13.8977 23.4832 13.3179 22.768 13.3179C22.0528 13.3179 21.473 13.8977 21.473 14.6129C21.473 15.3281 22.0528 15.9079 22.768 15.9079Z" fill="#9135E8"/>
<path d="M25.92 5.19897H10.21C8.85299 5.19897 7.56399 5.91797 6.84599 7.07497C6.58399 7.49697 6.71399 8.05297 7.13599 8.31397C7.55699 8.57697 8.11399 8.44597 8.37499 8.02397C8.76799 7.39297 9.47099 6.99997 10.21 6.99997H25.92C27.122 6.99997 28.1 7.97797 28.1 9.17998V20.04C28.1 21.242 27.122 22.22 25.92 22.22H21.27C21.03 22.22 20.798 22.317 20.629 22.488L18.206 24.942C18.154 24.995 18.051 24.999 18.065 25.001C18.03 25.001 17.98 24.991 17.928 24.938L15.498 22.488C15.329 22.318 15.1 22.221 14.859 22.221H10.209C9.46599 22.221 8.77799 21.838 8.36799 21.197C8.09999 20.778 7.54199 20.656 7.12499 20.923C6.70599 21.192 6.58299 21.747 6.85099 22.166C7.59399 23.328 8.84899 24.022 10.209 24.022H14.484L16.638 26.194C17.009 26.583 17.512 26.798 18.053 26.801H18.065C18.598 26.801 19.119 26.582 19.489 26.204L21.644 24.021H25.918C28.112 24.021 29.898 22.235 29.898 20.041V9.17998C29.9 6.98498 28.114 5.19897 25.92 5.19897Z" fill="#9135E8"/>
<path d="M9.45901 17.6781C9.45901 17.1811 9.05601 16.7781 8.55901 16.7781H5.05201C4.55501 16.7781 4.15201 17.1811 4.15201 17.6781C4.15201 18.1751 4.55501 18.5781 5.05201 18.5781H8.55901C9.05601 18.5781 9.45901 18.1751 9.45901 17.6781Z" fill="#9135E8"/>
<path d="M9.459 14.6129C9.459 14.1159 9.056 13.7129 8.559 13.7129H4.025C3.528 13.7129 3.125 14.1159 3.125 14.6129C3.125 15.1099 3.528 15.5129 4.025 15.5129H8.558C9.056 15.5139 9.459 15.1099 9.459 14.6129Z" fill="#9135E8"/>
<path d="M9.45901 11.5499C9.45901 11.0529 9.05601 10.6499 8.55901 10.6499H3.00001C2.50301 10.6499 2.10001 11.0529 2.10001 11.5499C2.10001 12.0469 2.50301 12.4499 3.00001 12.4499H8.55901C9.05601 12.4499 9.45901 12.0469 9.45901 11.5499Z" fill="#9135E8"/>
</svg>
