<svg width="32" height="32" viewBox="0 0 32 32" fill="none" xmlns="http://www.w3.org/2000/svg">
<g clip-path="url(#clip0_3028_2948)">
<path d="M10.4567 14.4056C10.6687 14.4059 10.8723 14.3216 11.0222 14.1716C11.1722 14.0216 11.2565 13.8181 11.2562 13.6061C11.2562 13.1644 11.6144 12.8062 12.0561 12.8062C12.4978 12.8062 12.8559 13.1644 12.8559 13.6061C12.8559 14.0477 13.2138 14.4056 13.6555 14.4056C14.0975 14.4056 14.4554 14.0477 14.4554 13.6061C14.4554 12.2808 13.3811 11.2068 12.0561 11.2068C10.7311 11.2068 9.65683 12.2808 9.65683 13.6061C9.65683 13.8181 9.74089 14.0216 9.89084 14.1716C10.0411 14.3216 10.2443 14.4059 10.4567 14.4056Z" fill="#9135E8"/>
<path d="M21.2955 19.6885C18.3088 21.1816 13.8017 21.1816 10.8143 19.6885C10.4192 19.4908 9.93888 19.651 9.74118 20.0461C9.54378 20.4412 9.7037 20.9218 10.0988 21.1192C11.9603 21.9972 13.997 22.4395 16.0548 22.4125C18.1125 22.4395 20.1495 21.9969 22.0108 21.1192C22.4059 20.9218 22.5661 20.4412 22.3687 20.0461C22.171 19.651 21.6906 19.4908 21.2955 19.6885Z" fill="#9135E8"/>
<path d="M29.6508 12.8061H28.8509V10.4069C28.8489 8.19944 27.0597 6.41024 24.8523 6.40819H22.453V4.66117C23.5545 4.27193 24.2156 3.14523 24.0179 1.99363C23.8202 0.841734 22.8217 0 21.6532 0C20.4846 0 19.4861 0.841734 19.2885 1.99363C19.0908 3.14523 19.7518 4.27193 20.8533 4.66117V6.40819H11.2562V4.66117C12.3581 4.27193 13.0188 3.14523 12.8214 1.99363C12.6237 0.841734 11.6253 0 10.4567 0C9.2881 0 8.28939 0.841734 8.09199 1.99363C7.89429 3.14523 8.55503 4.27193 9.65684 4.66117V6.40819H7.25757C5.05015 6.41053 3.26124 8.19944 3.2589 10.4069V12.8061H2.45905C1.13465 12.8076 0.0612483 13.881 0.0597839 15.2054V18.4045C0.0612483 19.7289 1.13465 20.8023 2.45905 20.8038H3.2589V24.0026C3.26124 26.2103 5.05015 27.9992 7.25757 28.0016H11.2562V31.2004C11.2565 31.4912 11.4144 31.7589 11.6686 31.8998C11.9228 32.0407 12.2336 32.0325 12.4799 31.8784L18.6837 28.0016H24.8523C27.0597 27.9995 28.8489 26.2103 28.8509 24.0026V20.8038H29.6508C30.9752 20.8023 32.0486 19.7289 32.0501 18.4045V15.2054C32.0486 13.881 30.9752 12.8076 29.6508 12.8061ZM21.6532 1.60966C22.0948 1.60966 22.453 1.96756 22.453 2.40922C22.453 2.85118 22.0948 3.20907 21.6532 3.20907C21.2115 3.20907 20.8533 2.85118 20.8533 2.40922C20.8542 1.96815 21.2118 1.61054 21.6532 1.60966ZM10.4567 1.60966C10.8984 1.60966 11.2562 1.96756 11.2562 2.40922C11.2562 2.85118 10.8984 3.20907 10.4567 3.20907C10.015 3.20907 9.65684 2.85118 9.65684 2.40922C9.65742 1.96785 10.015 1.61025 10.4567 1.60966ZM2.45905 19.2041C2.01768 19.2038 1.65978 18.8459 1.6592 18.4045V15.2054C1.65978 14.764 2.01768 14.4061 2.45905 14.4055H3.2589V19.2041H2.45905ZM27.2515 24.0026C27.2501 25.3273 26.1767 26.4007 24.8523 26.4019H18.454C18.3044 26.4019 18.1576 26.444 18.0308 26.5237L12.856 29.7571V27.2017C12.856 26.9897 12.7719 26.7861 12.6216 26.6362C12.4717 26.4862 12.2681 26.4019 12.0561 26.4019H7.25757C5.93318 26.4007 4.85978 25.3273 4.85831 24.0026V10.4069C4.85978 9.08247 5.93318 8.00907 7.25757 8.0076H24.8523C26.1767 8.00907 27.2501 9.08247 27.2515 10.4069V24.0026ZM30.4504 18.4045C30.4498 18.8459 30.0922 19.2035 29.6508 19.2041H28.8509V14.4055H29.6508C30.0922 14.4064 30.4498 14.764 30.4504 15.2054V18.4045Z" fill="#9135E8"/>
<path d="M20.0537 11.2068C18.7293 11.2083 17.6559 12.2817 17.6545 13.6061C17.6545 14.0477 18.0124 14.4056 18.454 14.4056C18.896 14.4056 19.2539 14.0477 19.2539 13.6061C19.2539 13.1644 19.6121 12.8062 20.0537 12.8062C20.4954 12.8062 20.8533 13.1644 20.8533 13.6061C20.8533 14.0477 21.2115 14.4056 21.6532 14.4056C22.0948 14.4056 22.453 14.0477 22.453 13.6061C22.4515 12.2817 21.3781 11.2083 20.0537 11.2068Z" fill="#9135E8"/>
</g>
<defs>
<clipPath id="clip0_3028_2948">
<rect width="32" height="32" fill="white"/>
</clipPath>
</defs>
</svg>
