<svg width="45" height="45" viewBox="0 0 45 45" fill="none" xmlns="http://www.w3.org/2000/svg">
<path fill-rule="evenodd" clip-rule="evenodd" d="M27.5265 16.0553L19.5221 24.0598C19.4902 24.0917 19.4381 24.0917 19.4062 24.0598L15.2625 19.9161L15.2614 19.9172C15.0429 19.6982 14.6899 19.6746 14.4434 19.8729L3.63406 28.5307C3.37009 28.7429 3.32815 29.129 3.54037 29.393C3.75259 29.657 4.13869 29.6989 4.40266 29.4867L8.05468 26.5616C8.07448 26.5457 8.09797 26.5402 8.12272 26.5454C8.14756 26.5506 8.16673 26.5651 8.17852 26.5876C8.75542 27.6905 9.50682 28.7261 10.4336 29.6528C15.1834 34.4027 22.7855 34.5611 27.7261 30.1289C27.7584 30.0998 27.8079 30.101 27.8387 30.1318L31.3397 33.6328C31.3716 33.6647 31.3716 33.7168 31.3397 33.7487L31.0882 34.0002C30.589 34.4994 30.589 35.3162 31.0882 35.8154L37.042 41.7692C37.5412 42.2684 38.3579 42.2684 38.8572 41.7692L40.3456 40.2807C40.8447 39.7816 40.8448 38.9648 40.3456 38.4655L34.3918 32.5118C33.8926 32.0126 33.0758 32.0126 32.5766 32.5118L32.3252 32.7633C32.2932 32.7953 32.2412 32.7953 32.2092 32.7633L28.7083 29.2624C28.6775 29.2315 28.6763 29.1822 28.7054 29.1497C31.9799 25.4996 32.7483 20.3969 31.011 16.0647C31.0004 16.0381 30.9787 16.0203 30.9506 16.0148C30.9224 16.0093 30.8957 16.0177 30.8758 16.0384L28.5868 18.4178C28.5668 18.4386 28.5595 18.466 28.5664 18.4941C29.3268 21.6128 28.4894 25.0414 26.0536 27.4772C22.3411 31.1897 16.3218 31.1897 12.6093 27.4772C11.7485 26.6163 11.0874 25.6314 10.6259 24.5801C10.6108 24.5456 10.6203 24.5067 10.6497 24.4831L14.724 21.2197C14.7568 21.1934 14.8036 21.1961 14.8332 21.2258L19.0295 25.422C19.2696 25.6621 19.6589 25.6621 19.8989 25.422L36.8464 8.47447C36.8678 8.45305 36.897 8.44531 36.9261 8.45341C36.9553 8.46151 36.9764 8.48302 36.9838 8.51236L37.8246 11.8461C37.8334 11.8811 37.8624 11.9054 37.8984 11.9079C37.9344 11.9104 37.9664 11.8903 37.98 11.8569L41.5885 2.96953C41.6012 2.9383 41.5943 2.90455 41.5705 2.8807C41.5467 2.85694 41.5129 2.85001 41.4817 2.8627L32.5943 6.47116C32.5609 6.48475 32.5408 6.51679 32.5433 6.55279C32.5458 6.5887 32.57 6.61777 32.6051 6.62659L35.9388 7.46746C35.9682 7.47484 35.9898 7.4959 35.9978 7.52515C36.0059 7.5544 35.9981 7.58347 35.9767 7.60489L29.8749 13.7067C29.8571 13.7245 29.8345 13.7327 29.8094 13.7304C29.7841 13.728 29.7636 13.7155 29.7494 13.6946C25.3279 7.18153 16.0389 6.25147 10.4334 11.857C7.09519 15.1952 6.02563 19.9419 7.22272 24.1837C7.23046 24.211 7.24963 24.2309 7.27663 24.2395C7.30363 24.2481 7.3309 24.2431 7.35304 24.2253L9.89185 22.1833C9.91507 22.1646 9.92578 22.1373 9.92155 22.1078C9.51222 19.2463 10.4076 16.2341 12.6089 14.0328C17.0373 9.60442 24.4145 10.6164 27.5392 15.9557C27.5587 15.9885 27.5534 16.0285 27.5265 16.0553Z" fill="#9135E8"/>
</svg>
