<svg width="60" height="60" viewBox="0 0 60 60" fill="none" xmlns="http://www.w3.org/2000/svg">
<g clip-path="url(#clip0_3083_265)">
<path d="M39.792 25.2362C40.0723 23.1812 40.0723 21.1262 39.6986 19.0713L43.6218 16.5492L41.1932 11.0382L36.7096 12.2525C35.4953 10.5711 34.0007 9.07659 32.226 7.95569L33.2535 3.3787L27.649 1.1369L25.3138 5.15345C23.2588 4.87323 21.2038 4.87323 19.1489 5.24686L16.6268 1.32372L11.0224 3.84574L12.2367 8.32933C10.5553 9.54363 9.06078 11.0382 7.93989 12.8129L3.36289 11.7854L1.12109 17.3899L5.13764 19.7251C4.85742 21.7801 4.85742 23.8351 5.23105 25.8901L1.30791 28.4121L3.82993 33.9231L8.31352 32.8023C9.52782 34.4836 11.0224 35.9781 12.7971 37.099L11.7696 41.676L17.3741 43.9178L19.7093 39.9013C21.7643 40.1815 23.8193 40.1815 25.8742 39.8079L28.3963 43.731L33.9073 41.3024L32.7864 36.632C34.4678 35.4177 35.9623 33.9231 37.0832 32.1484L41.6602 33.1759L43.902 27.5714L39.792 25.2362Z" fill="#FDBF5E"/>
<path d="M22.4183 33.2697C28.4025 33.2697 33.2537 28.4185 33.2537 22.4343C33.2537 16.4501 28.4025 11.599 22.4183 11.599C16.4342 11.599 11.583 16.4501 11.583 22.4343C11.583 28.4185 16.4342 33.2697 22.4183 33.2697Z" fill="white"/>
<path d="M29.5174 45.5992L45.5835 29.533C49.1331 30.6539 53.1496 29.7198 56.0453 26.9176C58.8475 24.1153 59.6882 20.0988 58.6607 16.4558L50.5342 24.5824L43.622 17.6702L51.7485 9.54365C48.199 8.42275 44.1824 9.35683 41.2868 12.1591C38.4845 14.9613 37.6439 18.9779 38.6714 22.6208L22.5117 38.687C18.9622 37.5661 14.9457 38.5002 12.05 41.3024C9.24779 44.1046 8.40712 48.1212 9.43461 51.7641L17.5611 43.6376L24.4733 50.5498L16.3468 58.6763C19.8963 59.7972 23.9129 58.8631 26.8085 56.0609C29.7042 53.1652 30.5448 49.1487 29.5174 45.5992Z" fill="white"/>
<path d="M39.7923 42.7035L42.6879 39.7145L27.9294 24.956L28.2097 22.3406L20.0832 17.2031L17.1875 20.0988L22.3249 28.3187L25.0338 27.9451L39.7923 42.7035Z" fill="white"/>
<path d="M46.3303 40.2749V38.7804C46.3303 37.7529 45.116 37.2858 44.3688 37.9397L38.017 44.2914C37.2698 45.0387 37.8302 46.253 38.8577 46.253H40.2588C41.1929 46.253 42.127 46.5332 42.8743 47.0937C42.9677 47.1871 43.0611 47.2805 43.1545 47.3739C44.0886 48.308 44.4622 49.5223 44.3688 50.6432L44.5556 50.83L50.8139 57.0884C52.4953 58.7697 55.2975 58.7697 57.0723 57.0884C58.847 55.3136 58.847 52.6048 57.0723 50.83L50.8139 44.5717L50.6271 44.3849C49.5062 44.4783 48.2919 44.1046 47.3578 43.1705C47.2644 43.0771 47.171 42.9837 47.0776 42.8903C46.5172 42.1431 46.3303 41.209 46.3303 40.2749Z" fill="#F16051"/>
<path d="M51.0942 43.4508H50.6272C49.6931 43.5442 48.759 43.1705 48.1052 42.5167C48.0118 42.4233 47.9184 42.3299 47.9184 42.2365C47.4513 41.676 47.2645 41.0222 47.2645 40.1815V38.687C47.2645 38.1265 47.0777 37.5661 46.7041 37.1924C45.9568 36.4452 44.5557 36.3517 43.8084 37.1924L42.6875 38.4067L40.3523 36.0715L45.8634 30.5604C46.7975 30.7473 47.7315 30.9341 48.6656 30.9341C51.7481 30.9341 54.5503 29.7198 56.6987 27.5714C59.6878 24.5823 60.7153 20.2856 59.501 16.1756L59.0339 14.6811L50.4404 23.2746L44.8359 17.6701L53.4294 9.07658L51.9349 8.60954C50.9074 8.32931 49.7865 8.1425 48.6656 8.1425C46.237 8.1425 43.9018 8.88976 41.9402 10.3843L41.7534 9.91725L37.083 11.1316C35.9621 9.73043 34.7478 8.51613 33.3467 7.48864L34.3742 2.81823L27.2752 0.0159912L24.8466 4.12595C23.0718 3.93913 21.297 3.93913 19.6157 4.21936L16.9069 0.202807L9.90126 3.28527L11.1156 7.95568C9.71444 9.07658 8.50014 10.2909 7.47265 11.692L2.80224 10.6645L0 17.7635L4.10996 20.1921C3.92314 21.9669 3.92314 23.7417 4.20336 25.423L0.186816 28.0384L3.26928 35.044L7.93969 33.8297C9.06059 35.2309 10.2749 36.4452 11.676 37.4726L10.8353 41.3024C8.31332 44.198 7.47265 48.2146 8.59355 51.9509L9.06059 53.4454L17.6541 44.8519L23.2586 50.4564L14.6651 59.0499L16.1596 59.517C17.1871 59.7972 18.308 59.984 19.4289 59.984C22.5114 59.984 25.3136 58.7697 27.462 56.6213C30.2642 53.8191 31.3851 49.7091 30.451 45.786L36.0555 40.1815L38.3907 42.5167L37.3632 43.5442C36.8028 44.1046 36.616 45.0387 36.8962 45.786C37.1764 46.5332 37.9237 47.0937 38.8578 47.0937H40.3523C41.0996 47.0937 41.8468 47.2805 42.4073 47.7475C42.5007 47.8409 42.5941 47.8409 42.6875 47.9343C43.4348 48.5882 43.715 49.5223 43.6216 50.4564V50.9234L50.347 57.6488C51.3745 58.6763 52.6822 59.2367 54.0833 59.2367C55.4844 59.2367 56.8855 58.6763 57.913 57.6488C59.968 55.5938 60.0614 52.1377 57.913 50.0827L51.0942 43.4508ZM49.7865 10.1041L42.2205 17.6701L50.5338 25.9834L58.0998 18.4174C58.4735 21.313 57.446 24.2087 55.391 26.2637C53.6163 28.0384 51.1876 29.0659 48.6656 29.0659C47.7315 29.0659 46.7975 28.9725 45.8634 28.6923L45.3029 28.5055L39.0446 34.7638L33.4401 29.1593L39.6984 22.901L39.5116 22.3405C38.4841 18.9778 39.4182 15.3349 41.8468 12.8129C43.6216 11.0381 46.0502 10.0107 48.5722 10.0107C49.0393 10.0107 49.4129 10.0107 49.7865 10.1041ZM9.06059 32.2418L8.68695 31.6813L4.39018 32.8022L2.61543 28.6923L6.35175 26.2637L6.25834 25.6098C5.88471 23.6482 5.7913 21.6867 6.16494 19.7251L6.25834 19.0712L2.42861 16.8295L4.01655 12.7195L8.40673 13.6536L8.78036 13.0931C9.90126 11.4118 11.209 10.0107 12.7969 8.88976L13.3574 8.51613L12.2365 4.21936L16.3464 2.4446L18.775 6.18093L19.4289 6.08752C21.297 5.71389 23.352 5.62048 25.3136 5.99411L25.9675 6.08752L28.2092 2.25779L32.3192 3.84572L31.3851 8.2359L31.9456 8.60954C33.6269 9.73043 35.028 11.0381 36.1489 12.6261L36.5226 13.1865L40.0721 12.2525C37.7369 15.0547 36.8962 18.6976 37.8303 22.2471L32.3192 27.7582L29.1433 24.5823L29.4236 21.7801L20.0827 15.9888L15.9728 20.0053L21.8575 29.2527L24.7531 28.8791L27.929 31.9616L22.4179 37.4726C21.4839 37.2858 20.5498 37.099 19.6157 37.099C17.3739 37.099 15.2255 37.7529 13.3574 38.9672L13.9178 36.4452L13.3574 36.0715C11.5826 35.2309 10.1815 33.8297 9.06059 32.2418ZM28.3961 45.3189L28.5829 45.8794C29.6104 49.2421 28.6763 52.885 26.2477 55.407C24.4729 57.1818 22.0443 58.2092 19.5223 58.2092C19.1487 58.2092 18.775 58.2092 18.4014 58.1158L25.9675 50.5498L17.6541 42.2365L10.0881 49.8025C9.71444 46.9069 10.7419 44.0112 12.7969 41.9562C14.5717 40.1815 17.0003 39.154 19.5223 39.154C20.4564 39.154 21.3905 39.2474 22.3245 39.5276L22.885 39.7144L29.2367 33.3627L34.8412 38.9672L28.3961 45.3189ZM25.407 26.9175L22.7916 27.2912L18.4014 20.2856L20.2696 18.4174L27.2752 22.8076L26.9949 25.3296L41.3798 39.7144L39.7919 41.3024L25.407 26.9175ZM56.4185 56.3411C55.1108 57.6488 52.7756 57.6488 51.4679 56.3411L45.3963 50.2696C45.3963 48.9618 44.8359 47.6541 43.9018 46.72C43.8084 46.6266 43.6216 46.4398 43.5282 46.3464C42.6875 45.6926 41.5666 45.3189 40.2589 45.3189H38.8578C38.7644 45.3189 38.671 45.3189 38.671 45.2255C38.671 45.1321 38.671 45.0387 38.671 45.0387L39.6984 44.0112L43.9952 39.7144L45.0227 38.687C45.1161 38.5935 45.2095 38.5935 45.3029 38.687L45.3963 38.7804V40.2749C45.3963 41.4892 45.77 42.6101 46.5172 43.5442C46.6106 43.6376 46.7041 43.8244 46.8909 43.9178C47.825 44.8519 49.1327 45.4123 50.4404 45.4123L56.5119 51.4839C57.8196 52.7916 57.8196 55.0334 56.4185 56.3411Z" fill="#193651"/>
<path d="M26.5179 40.2778L27.8389 41.5988L29.1598 40.2778L27.8389 38.9568L26.5179 40.2778Z" fill="#193651"/>
<path d="M40.3503 26.4967L39.0293 27.8177L40.3503 29.1387L41.6713 27.8177L40.3503 26.4967Z" fill="#193651"/>
</g>
<defs>
<clipPath id="clip0_3083_265">
<rect width="60" height="60" fill="white"/>
</clipPath>
</defs>
</svg>
