<svg width="40" height="45" viewBox="0 0 40 45" fill="none" xmlns="http://www.w3.org/2000/svg">
<path d="M34.6923 8.75217C34.666 8.51492 34.4551 8.40947 34.2969 8.40947C34.1387 8.40947 30.6853 8.14585 30.6853 8.14585C30.6853 8.14585 28.2864 5.74691 27.9964 5.50965C27.7328 5.24603 27.2319 5.32512 27.021 5.37784C26.9946 5.37784 26.4938 5.53601 25.6766 5.79963C24.8593 3.45342 23.4621 1.3181 20.9578 1.3181H20.7205C20.0351 0.421791 19.1388 0 18.4007 0C12.601 0 9.80665 7.24954 8.93671 10.9402C6.66958 11.652 5.0615 12.1265 4.87696 12.2056C3.61159 12.601 3.58523 12.6274 3.42706 13.8137C3.29525 14.71 0 40.202 0 40.202L25.6502 44.9999L39.5693 41.9946C39.5957 41.9419 34.7187 8.98943 34.6923 8.75217ZM24.253 6.1687C23.6203 6.35323 22.8558 6.59049 22.0913 6.85411V6.3796C22.0913 4.95605 21.9068 3.79612 21.5641 2.87345C22.8822 3.03163 23.6994 4.48153 24.253 6.1687ZM19.956 3.16344C20.2987 4.05974 20.536 5.32512 20.536 7.06501V7.32863C19.1124 7.77678 17.6098 8.22493 16.0544 8.72581C16.9244 5.4042 18.5852 3.76976 19.956 3.16344ZM18.2688 1.52899C18.5325 1.52899 18.7961 1.63444 19.007 1.79261C17.1353 2.66256 15.1581 4.8506 14.3409 9.27941C13.1019 9.67484 11.9156 10.0175 10.782 10.3866C11.7311 7.01228 14.1037 1.52899 18.2688 1.52899Z" fill="#95BF47"/>
<path d="M34.2969 8.35682C34.1387 8.35682 30.6853 8.0932 30.6853 8.0932C30.6853 8.0932 28.2864 5.69426 27.9964 5.457C27.8909 5.35155 27.7591 5.29883 27.6537 5.29883L25.7292 44.9999L39.6484 41.9947C39.6484 41.9947 34.7714 8.9895 34.745 8.75224C34.6396 8.51499 34.4551 8.40954 34.2969 8.35682Z" fill="#5E8E3E"/>
<path d="M20.9578 16.0548L19.2706 21.1427C19.2706 21.1427 17.7416 20.3254 15.9226 20.3254C13.2073 20.3254 13.0755 22.039 13.0755 22.4608C13.0755 24.7806 19.1388 25.6769 19.1388 31.1339C19.1388 35.4309 16.4235 38.1989 12.7592 38.1989C8.33037 38.1989 6.11597 35.4572 6.11597 35.4572L7.30226 31.5556C7.30226 31.5556 9.62211 33.5592 11.5729 33.5592C12.8646 33.5592 13.3919 32.5574 13.3919 31.8193C13.3919 28.7876 8.43582 28.6558 8.43582 23.6471C8.43582 19.4555 11.4411 15.3958 17.5307 15.3958C19.7978 15.3694 20.9578 16.0548 20.9578 16.0548Z" fill="white"/>
</svg>
