<svg width="45" height="45" viewBox="0 0 45 45" fill="none" xmlns="http://www.w3.org/2000/svg">
<path d="M9.4544 28.4367C9.4544 31.0385 7.32899 33.1639 4.7272 33.1639C2.12541 33.1639 0 31.0385 0 28.4367C0 25.8349 2.12541 23.7095 4.7272 23.7095H9.4544V28.4367Z" fill="#E01E5A"/>
<path d="M11.8363 28.4367C11.8363 25.8349 13.9617 23.7095 16.5635 23.7095C19.1653 23.7095 21.2907 25.8349 21.2907 28.4367V40.273C21.2907 42.8748 19.1653 45.0002 16.5635 45.0002C13.9617 45.0002 11.8363 42.8748 11.8363 40.273V28.4367Z" fill="#E01E5A"/>
<path d="M16.5635 9.4544C13.9617 9.4544 11.8363 7.32899 11.8363 4.7272C11.8363 2.12541 13.9617 0 16.5635 0C19.1653 0 21.2907 2.12541 21.2907 4.7272V9.4544H16.5635Z" fill="#36C5F0"/>
<path d="M16.5635 11.8364C19.1653 11.8364 21.2907 13.9618 21.2907 16.5636C21.2907 19.1654 19.1653 21.2908 16.5635 21.2908H4.7272C2.12541 21.2908 0 19.1654 0 16.5636C0 13.9618 2.12541 11.8364 4.7272 11.8364H16.5635Z" fill="#36C5F0"/>
<path d="M35.5455 16.5636C35.5455 13.9618 37.6709 11.8364 40.2727 11.8364C42.8745 11.8364 44.9999 13.9618 44.9999 16.5636C44.9999 19.1654 42.8745 21.2908 40.2727 21.2908H35.5455V16.5636Z" fill="#2EB67D"/>
<path d="M33.1636 16.5635C33.1636 19.1653 31.0382 21.2907 28.4364 21.2907C25.8346 21.2907 23.7092 19.1653 23.7092 16.5635V4.7272C23.7092 2.12541 25.8346 0 28.4364 0C31.0382 0 33.1636 2.12541 33.1636 4.7272V16.5635Z" fill="#2EB67D"/>
<path d="M28.4364 35.5454C31.0382 35.5454 33.1636 37.6708 33.1636 40.2726C33.1636 42.8744 31.0382 44.9998 28.4364 44.9998C25.8346 44.9998 23.7092 42.8744 23.7092 40.2726V35.5454H28.4364Z" fill="#ECB22E"/>
<path d="M28.4364 33.1639C25.8346 33.1639 23.7092 31.0385 23.7092 28.4367C23.7092 25.8349 25.8346 23.7095 28.4364 23.7095H40.2727C42.8745 23.7095 44.9999 25.8349 44.9999 28.4367C44.9999 31.0385 42.8745 33.1639 40.2727 33.1639H28.4364Z" fill="#ECB22E"/>
</svg>
