<svg width="45" height="42" viewBox="0 0 45 42" fill="none" xmlns="http://www.w3.org/2000/svg">
<path d="M31.388 15.6978H43.0116C44.1098 15.6978 45 16.588 45 17.6861V28.2737C45 32.3097 41.7282 35.5815 37.6922 35.5815H37.6577C33.6217 35.582 30.3494 32.3107 30.3488 28.2747V16.737C30.3488 16.163 30.8141 15.6978 31.388 15.6978Z" fill="#5059C9"/>
<path d="M39.2442 13.6046C41.8451 13.6046 43.9535 11.4962 43.9535 8.89534C43.9535 6.29446 41.8451 4.18604 39.2442 4.18604C36.6433 4.18604 34.5349 6.29446 34.5349 8.89534C34.5349 11.4962 36.6433 13.6046 39.2442 13.6046Z" fill="#5059C9"/>
<path d="M24.593 13.6047C28.3499 13.6047 31.3954 10.5592 31.3954 6.80233C31.3954 3.04551 28.3499 0 24.593 0C20.8362 0 17.7907 3.04551 17.7907 6.80233C17.7907 10.5592 20.8362 13.6047 24.593 13.6047Z" fill="#7B83EB"/>
<path d="M33.6631 15.6978H14.4764C13.3913 15.7246 12.533 16.6251 12.5581 17.7102V29.7859C12.4066 36.2975 17.5583 41.7012 24.0698 41.8606C30.5812 41.7012 35.7329 36.2975 35.5814 29.7859V17.7102C35.6065 16.6251 34.7482 15.7246 33.6631 15.6978Z" fill="#7B83EB"/>
<path opacity="0.1" d="M25.1163 15.6978V32.6199C25.111 33.3958 24.6408 34.093 23.9232 34.3884C23.6948 34.4851 23.4492 34.5349 23.2011 34.535H13.479C13.343 34.1896 13.2174 33.8443 13.1128 33.4885C12.7464 32.2876 12.5595 31.0393 12.5581 29.7838V17.7071C12.5329 16.6237 13.3899 15.7246 14.4732 15.6978H25.1163Z" fill="black"/>
<path opacity="0.2" d="M24.0698 15.6978V33.6664C24.0697 33.9144 24.0199 34.16 23.9232 34.3884C23.6278 35.106 22.9306 35.5763 22.1546 35.5815H13.9709C13.793 35.2361 13.6256 34.8908 13.479 34.535C13.3325 34.1792 13.2174 33.8443 13.1128 33.4885C12.7464 32.2876 12.5595 31.0393 12.5581 29.7838V17.7071C12.5329 16.6237 13.3899 15.7246 14.4732 15.6978H24.0698Z" fill="black"/>
<path opacity="0.2" d="M24.0698 15.6978V31.5733C24.0618 32.6277 23.2091 33.4805 22.1547 33.4885H13.1128C12.7465 32.2876 12.5596 31.0393 12.5582 29.7838V17.7071C12.533 16.6237 13.3899 15.7246 14.4733 15.6978H24.0698Z" fill="black"/>
<path opacity="0.2" d="M23.0233 15.6978V31.5733C23.0153 32.6277 22.1625 33.4805 21.1082 33.4885H13.1128C12.7465 32.2876 12.5596 31.0393 12.5582 29.7838V17.7071C12.533 16.6237 13.3899 15.7246 14.4733 15.6978H23.0233Z" fill="black"/>
<path opacity="0.1" d="M25.1163 10.2872V13.5837C24.9384 13.5941 24.7709 13.6046 24.593 13.6046C24.4151 13.6046 24.2477 13.5942 24.0698 13.5837C23.7165 13.5602 23.3662 13.5042 23.0233 13.4162C20.9041 12.9144 19.1533 11.4282 18.314 9.41858C18.1695 9.08109 18.0574 8.73069 17.9791 8.37207H23.2012C24.2572 8.37607 25.1123 9.23113 25.1163 10.2872Z" fill="black"/>
<path opacity="0.2" d="M24.0698 11.3336V13.5836C23.7165 13.5601 23.3662 13.5041 23.0233 13.4161C20.9041 12.9143 19.1533 11.428 18.314 9.41846H22.1547C23.2107 9.42245 24.0658 10.2775 24.0698 11.3336Z" fill="black"/>
<path opacity="0.2" d="M24.0698 11.3336V13.5836C23.7165 13.5601 23.3662 13.5041 23.0233 13.4161C20.9041 12.9143 19.1533 11.428 18.314 9.41846H22.1547C23.2107 9.42245 24.0658 10.2775 24.0698 11.3336Z" fill="black"/>
<path opacity="0.2" d="M23.0232 11.3336V13.4161C20.904 12.9143 19.1532 11.428 18.3139 9.41846H21.1081C22.1641 9.42247 23.0192 10.2776 23.0232 11.3336Z" fill="black"/>
<path d="M1.91825 9.41846H21.105C22.1644 9.41846 23.0232 10.2773 23.0232 11.3367V30.5234C23.0232 31.5829 22.1644 32.4417 21.105 32.4417H1.91825C0.858819 32.4417 0 31.5828 0 30.5234V11.3367C0 10.2773 0.85884 9.41846 1.91825 9.41846Z" fill="url(#paint0_linear_3053_174)"/>
<path d="M16.56 16.7214H12.7245V27.1655H10.2809V16.7214H6.46326V14.6953H16.56V16.7214Z" fill="white"/>
<defs>
<linearGradient id="paint0_linear_3053_174" x1="3.99961" y1="7.91956" x2="19.0236" y2="33.9406" gradientUnits="userSpaceOnUse">
<stop stop-color="#5A62C3"/>
<stop offset="0.5" stop-color="#4D55BD"/>
<stop offset="1" stop-color="#3940AB"/>
</linearGradient>
</defs>
</svg>
