<svg width="45" height="45" viewBox="0 0 45 45" fill="none" xmlns="http://www.w3.org/2000/svg">
<path d="M0.956074 22.3045C0.954951 26.0978 1.94605 29.8016 3.83079 33.0663L0.775757 44.2212L12.1911 41.228C15.3361 42.9421 18.8771 43.8467 22.4808 43.848H22.4904C34.3578 43.848 44.0182 34.1908 44.0231 22.3213C44.0255 16.5695 41.7876 11.1612 37.7217 7.0924C33.6566 3.02356 28.25 0.781635 22.4896 0.779068C10.6208 0.779068 0.960886 10.4354 0.956074 22.3045Z" fill="url(#paint0_linear_3053_22)"/>
<path d="M0.187295 22.2973C0.185851 26.2274 1.21273 30.0638 3.16453 33.4455L0 45L11.8248 41.8995C15.0827 43.6762 18.7508 44.6126 22.4838 44.6139H22.4934C34.7867 44.6139 44.7939 34.6096 44.7991 22.3155C44.8012 16.3568 42.4831 10.7543 38.272 6.53953C34.0603 2.32487 28.46 0.00272751 22.4934 0C10.1981 0 0.192188 10.0028 0.187215 22.2973H0.187295ZM7.22903 32.8632L6.78762 32.1621C4.93168 29.2111 3.95189 25.8008 3.95349 22.2989C3.95742 12.0799 12.2739 3.76636 22.5004 3.76636C27.4527 3.76836 32.107 5.69867 35.6078 9.20177C39.1082 12.7046 41.0344 17.3614 41.033 22.3139C41.0286 32.5332 32.7118 40.848 22.4935 40.848H22.4862C19.1589 40.8462 15.8959 39.9529 13.0499 38.264L12.3726 37.8627L5.3556 39.7023L7.22903 32.8632Z" fill="url(#paint1_linear_3053_22)"/>
<path fill-rule="evenodd" clip-rule="evenodd" d="M16.9184 12.976C16.5009 12.048 16.0614 12.0293 15.6642 12.013C15.3393 11.9991 14.9674 12 14.5961 12C14.2245 12 13.6206 12.1396 13.11 12.6973C12.599 13.255 11.1591 14.6032 11.1591 17.3453C11.1591 20.0878 13.1564 22.7374 13.4348 23.1095C13.7135 23.4812 17.2906 29.2881 22.9555 31.5222C27.6636 33.3788 28.6217 33.0095 29.6436 32.9166C30.6655 32.8237 32.9411 31.5686 33.4056 30.2672C33.8701 28.9659 33.8701 27.8506 33.7307 27.6174C33.5913 27.3851 33.2198 27.2458 32.6624 26.967C32.1049 26.6883 29.3649 25.3398 28.8539 25.154C28.343 24.9682 27.9713 24.8753 27.5998 25.4333C27.2282 25.9908 26.1608 27.2458 25.8355 27.6175C25.5104 27.9899 25.1853 28.0363 24.6278 27.7576C24.0704 27.478 22.2753 26.8901 20.1459 24.9915C18.489 23.5143 17.3705 21.6899 17.0452 21.132C16.7201 20.5745 17.0104 20.2726 17.29 19.9947C17.5402 19.745 17.8475 19.3442 18.1261 19.0187C18.4042 18.6933 18.4972 18.461 18.6829 18.0894C18.8687 17.7172 18.7758 17.3917 18.6365 17.113C18.4972 16.8343 17.414 14.078 16.9184 12.976Z" fill="white"/>
<defs>
<linearGradient id="paint0_linear_3053_22" x1="22.3993" y1="44.2212" x2="22.3993" y2="0.779028" gradientUnits="userSpaceOnUse">
<stop stop-color="#20B038"/>
<stop offset="1" stop-color="#60D66A"/>
</linearGradient>
<linearGradient id="paint1_linear_3053_22" x1="22.3997" y1="45.0001" x2="22.3997" y2="2.51822e-05" gradientUnits="userSpaceOnUse">
<stop stop-color="#EAEAEA"/>
<stop offset="1" stop-color="#ECECEC"/>
</linearGradient>
</defs>
</svg>
