<svg width="45" height="34" viewBox="0 0 45 34" fill="none" xmlns="http://www.w3.org/2000/svg">
<path d="M20.7857 8.97829V33.9978H0L20.7857 8.97829ZM20.7857 0C20.7857 2.74807 19.6907 5.38359 17.7417 7.32676C15.7926 9.26994 13.1492 10.3616 10.3928 10.3616C7.63648 10.3616 4.99302 9.26994 3.04399 7.32676C1.09496 5.38359 0 2.74807 0 0L20.7857 0ZM24.2099 34C24.2099 31.2519 25.3049 28.6164 27.2539 26.6732C29.2029 24.7301 31.8464 23.6384 34.6027 23.6384C37.3591 23.6384 40.0025 24.7301 41.9516 26.6732C43.9006 28.6164 44.9956 31.2519 44.9956 34H24.2099ZM24.2099 25.0217V0H45L24.2099 25.0195V25.0217Z" fill="#03363D"/>
</svg>
